<?xml version="1.0" encoding="UTF-8" standalone="no"?>
<svg
   width="75.320129mm"
   height="92.604164mm"
   viewBox="0 0 75.320129 92.604164"
   version="1.1"
   id="svg12"
   sodipodi:docname="pdf.svg"
   inkscape:version="1.2.2 (b0a8486541, 2022-12-01)"
   xmlns:inkscape="http://www.inkscape.org/namespaces/inkscape"
   xmlns:sodipodi="http://sodipodi.sourceforge.net/DTD/sodipodi-0.dtd"
   xmlns="http://www.w3.org/2000/svg"
   xmlns:svg="http://www.w3.org/2000/svg">
  <defs
     id="defs16" />
  <sodipodi:namedview
     id="namedview14"
     pagecolor="#ffffff"
     bordercolor="#000000"
     borderopacity="0.25"
     inkscape:showpageshadow="2"
     inkscape:pageopacity="0.0"
     inkscape:pagecheckerboard="0"
     inkscape:deskcolor="#d1d1d1"
     inkscape:document-units="mm"
     showgrid="false"
     inkscape:zoom="1.8954298"
     inkscape:cx="161.96854"
     inkscape:cy="153.52718"
     inkscape:window-width="1920"
     inkscape:window-height="1123"
     inkscape:window-x="0"
     inkscape:window-y="40"
     inkscape:window-maximized="1"
     inkscape:current-layer="svg12" />
  <g
     transform="translate(53.548057 -183.975276) scale(1.4843)"
     id="g10">
    <path
       fill="#ff2116"
       d="m -28.821005,125.01647 c -3.404521,0 -6.175888,2.79628 -6.175888,6.22886 v 47.83583 c 0,3.4326 2.771367,6.22888 6.175888,6.22888 H 7.4574289 c 3.4045201,0 6.1758881,-2.79617 6.1758881,-6.22888 v -39.33437 c 0,0 0.09714,-1.15178 -0.398745,-2.27261 -0.464837,-1.05058 -1.222447,-1.78183 -1.222447,-1.78183 a 1.0145023,1.0228957 0 0 0 -0.0056,-0.008 l -9.0008112,-8.90162 a 1.0145023,1.0228957 0 0 0 -0.014977,-0.015 c 0,0 -0.7684581,-0.7378 -1.9076177,-1.23067 -1.34130511,-0.58034 -2.7238309,-0.51907 -2.7238309,-0.51907 l 0.020592,-0.002 z"
       color="#000000"
       font-family="sans-serif"
       overflow="visible"
       paint-order="markers fill stroke"
       style="line-height:normal;font-variant-ligatures:normal;font-variant-position:normal;font-variant-caps:normal;font-variant-numeric:normal;font-variant-alternates:normal;font-feature-settings:normal;text-indent:0;text-align:start;text-decoration-line:none;text-decoration-style:solid;text-decoration-color:#000000;text-transform:none;text-orientation:mixed;white-space:normal;shape-padding:0;isolation:auto;mix-blend-mode:normal;solid-color:#000000;solid-opacity:1;fill:none;stroke:#ff0000;stroke-width:2.01781;stroke-dasharray:none;stroke-opacity:1"
       id="path2" />
    <path
       fill="#ff2116"
       d="m -23.40766,155.03232 c -1.45669,-1.45669 0.11934,-3.45839 4.39648,-5.58397 l 2.69124,-1.33743 1.04845,-2.29399 c 0.57665,-1.26169 1.43729,-3.32036 1.91254,-4.5748 l 0.8641,-2.28082 -0.59546,-1.68793 c -0.73217,-2.07547 -0.99326,-5.19438 -0.52872,-6.31588 0.62923,-1.51909 2.69029,-1.36323 3.50626,0.26515 0.63727,1.27176 0.57212,3.57488 -0.18329,6.47946 l -0.6193,2.38125 0.5455,0.92604 c 0.30003,0.50932 1.1764,1.71867 1.9475,2.68743 l 1.44924,1.80272 1.8033728,-0.23533 c 5.72900399,-0.74758 7.6912472,0.523 7.6912472,2.34476 0,2.29921 -4.4984914,2.48899 -8.2760865,-0.16423 -0.8499666,-0.59698 -1.4336605,-1.19001 -1.4336605,-1.19001 0,0 -2.3665326,0.48178 -3.531704,0.79583 -1.202707,0.32417 -1.80274,0.52719 -3.564509,1.12186 0,0 -0.61814,0.89767 -1.02094,1.55026 -1.49858,2.4279 -3.24833,4.43998 -4.49793,5.1723 -1.3991,0.81993 -2.86584,0.87582 -3.60433,0.13733 z m 2.28605,-0.81668 c 0.81883,-0.50607 2.47616,-2.46625 3.62341,-4.28553 l 0.46449,-0.73658 -2.11497,1.06339 c -3.26655,1.64239 -4.76093,3.19033 -3.98386,4.12664 0.43653,0.52598 0.95874,0.48237 2.01093,-0.16792 z m 21.21809,-5.95578 c 0.80089,-0.56097 0.68463,-1.69142 -0.22082,-2.1472 -0.70466,-0.35471 -1.2726074,-0.42759 -3.1031574,-0.40057 -1.1249,0.0767 -2.9337647,0.3034 -3.2403347,0.37237 0,0 0.993716,0.68678 1.434896,0.93922 0.58731,0.33544 2.0145161,0.95811 3.0565161,1.27706 1.02785,0.31461 1.6224,0.28144 2.0729,-0.0409 z m -8.53152,-3.54594 c -0.4847,-0.50952 -1.30889,-1.57296 -1.83152,-2.3632 -0.68353,-0.89643 -1.02629,-1.52887 -1.02629,-1.52887 0,0 -0.4996,1.60694 -0.90948,2.57394 l -1.27876,3.16076 -0.37075,0.71695 c 0,0 1.971043,-0.64627 2.97389,-0.90822 1.0621668,-0.27744 3.21787,-0.70134 3.21787,-0.70134 z m -2.74938,-11.02573 c 0.12363,-1.0375 0.1761,-2.07346 -0.15724,-2.59587 -0.9246,-1.01077 -2.04057,-0.16787 -1.85154,2.23517 0.0636,0.8084 0.26443,2.19033 0.53292,3.04209 l 0.48817,1.54863 0.34358,-1.16638 c 0.18897,-0.64151 0.47882,-2.02015 0.64411,-3.06364 z"
       id="path6" />
    <path
       fill="#2c2c2c"
       d="m -30.391202,159.65888 h 4.655281 q 2.231229,0 3.622308,0.42695 1.391077,0.41319 2.341412,1.85936 0.950342,1.4324 0.950342,3.45704 0,1.85935 -0.771289,3.19533 -0.771291,1.33599 -2.079728,1.92822 -1.294668,0.59224 -3.994176,0.59224 h -1.611447 v 7.34104 h -3.112703 z m 3.112703,2.41027 v 6.55597 h 1.542578 q 2.065957,0 2.851017,-0.77131 0.798835,-0.77128 0.798835,-2.50668 0,-1.29467 -0.523377,-2.09351 -0.52337,-0.8126 -1.156931,-0.99165 -0.619788,-0.1929 -1.969544,-0.1929 z m 10.839369,-2.41027 h 4.228323 q 3.0713876,0 4.9031966,1.08806 1.845588,1.08806 2.7821576,3.23667 0.9503356,2.14859 0.9503356,4.76546 0,2.7546 -0.8539306,4.91697 -0.8401504,2.14859 -2.5893264,3.47079 -1.735404,1.32223 -4.9582918,1.32223 h -4.462464 z m 3.11271,2.4929 v 13.81436 h 1.294658 q 2.7132894,0 3.9390892,-1.87315 1.2257986,-1.88689 1.2257986,-5.02714 0,-6.91407 -5.1648878,-6.91407 z m 12.74005048,-2.4929 H 9.8535868 v 2.4929 H 2.52634 v 5.6194 h 5.8673077 v 2.49292 H 2.52634 v 8.19496 h -3.11270952 z"
       font-family="'Franklin Gothic Medium Cond'"
       letter-spacing="0"
       style="line-height:125%;-inkscape-font-specification:'Franklin Gothic Medium Cond';stroke-width:1.96842;fill:#1a1a1a"
       word-spacing="4.26"
       id="path8" />
  </g>
</svg>
